<svg xmlns="http://www.w3.org/2000/svg" xmlns:xlink="http://www.w3.org/1999/xlink" contentStyleType="text/css" height="430px" preserveAspectRatio="none" style="width:1084px;height:430px;background:#FFFFFF;" version="1.1" viewBox="0 0 1084 430" width="1084px" zoomAndPan="magnify"><defs/><g><!--class AuditLogs--><g id="elem_AuditLogs"><rect codeLine="3" fill="#F1F1F1" height="178.375" id="AuditLogs" rx="2.5" ry="2.5" style="stroke:#181818;stroke-width:0.5;" width="442.6025" x="383" y="7"/><ellipse cx="565.4204" cy="23" fill="#FFAAAA" rx="11" ry="11" style="stroke:#181818;stroke-width:1;"/><path d="M566.2642,29.75 L563.811,29.75 L563.811,19.5 L560.6704,19.5 L560.6704,17.3594 L569.4048,17.3594 L569.4048,19.5 L566.2642,19.5 L566.2642,29.75 Z " fill="#000000"/><text fill="#000000" font-family="sans-serif" font-size="14" lengthAdjust="spacing" textLength="69.2617" x="585.9204" y="27.8467">AuditLogs</text><line style="stroke:#181818;stroke-width:0.5;" x1="384" x2="824.6025" y1="39" y2="39"/><ellipse cx="394" cy="52.6484" fill="none" rx="3" ry="3" style="stroke:#038048;stroke-width:1;"/><text fill="#000000" font-family="sans-serif" font-size="14" lengthAdjust="spacing" textLength="128.0713" x="403" y="55.9951">entity_type : TEXT</text><ellipse cx="394" cy="68.9453" fill="none" rx="3" ry="3" style="stroke:#038048;stroke-width:1;"/><text fill="#000000" font-family="sans-serif" font-size="14" lengthAdjust="spacing" textLength="97.1865" x="403" y="72.292">entity_id : INT</text><ellipse cx="394" cy="85.2422" fill="none" rx="3" ry="3" style="stroke:#038048;stroke-width:1;"/><text fill="#000000" font-family="sans-serif" font-size="14" lengthAdjust="spacing" textLength="92.251" x="403" y="88.5889">action : TEXT</text><ellipse cx="394" cy="101.5391" fill="none" rx="3" ry="3" style="stroke:#038048;stroke-width:1;"/><text fill="#000000" font-family="sans-serif" font-size="14" lengthAdjust="spacing" textLength="170.2764" x="403" y="104.8857">timestamp : TIMESTAMP</text><ellipse cx="394" cy="117.8359" fill="none" rx="3" ry="3" style="stroke:#038048;stroke-width:1;"/><text fill="#000000" font-family="sans-serif" font-size="14" lengthAdjust="spacing" textLength="87.083" x="403" y="121.1826">user_id : INT</text><ellipse cx="394" cy="134.1328" fill="none" rx="3" ry="3" style="stroke:#038048;stroke-width:1;"/><text fill="#000000" font-family="sans-serif" font-size="14" lengthAdjust="spacing" textLength="95.7988" x="403" y="137.4795">details : TEXT</text><ellipse cx="394" cy="150.4297" fill="none" rx="3" ry="3" style="stroke:#038048;stroke-width:1;"/><text fill="#000000" font-family="sans-serif" font-size="14" lengthAdjust="spacing" textLength="104.5146" x="403" y="153.7764">audit_id : UUID</text><line style="stroke:#181818;stroke-width:1;" x1="384" x2="824.6025" y1="161.0781" y2="161.0781"/><ellipse cx="394" cy="174.7266" fill="#84BE84" rx="3" ry="3" style="stroke:#038048;stroke-width:1;"/><text fill="#000000" font-family="sans-serif" font-size="14" lengthAdjust="spacing" textLength="416.6025" x="403" y="178.0732">PRIMARY KEY ((entity_type, entity_id), timestamp, audit_id)</text></g><!--class FailedAuditLogs--><g id="elem_FailedAuditLogs"><rect codeLine="15" fill="#F1F1F1" height="178.375" id="FailedAuditLogs" rx="2.5" ry="2.5" style="stroke:#181818;stroke-width:0.5;" width="442.6025" x="7" y="245.37"/><ellipse cx="168.4648" cy="261.37" fill="#FFAAAA" rx="11" ry="11" style="stroke:#181818;stroke-width:1;"/><path d="M169.3086,268.12 L166.8555,268.12 L166.8555,257.87 L163.7148,257.87 L163.7148,255.7294 L172.4492,255.7294 L172.4492,257.87 L169.3086,257.87 L169.3086,268.12 Z " fill="#000000"/><text fill="#000000" font-family="sans-serif" font-size="14" lengthAdjust="spacing" textLength="111.1729" x="188.9648" y="266.2167">FailedAuditLogs</text><line style="stroke:#181818;stroke-width:0.5;" x1="8" x2="448.6025" y1="277.37" y2="277.37"/><ellipse cx="18" cy="291.0184" fill="none" rx="3" ry="3" style="stroke:#038048;stroke-width:1;"/><text fill="#000000" font-family="sans-serif" font-size="14" lengthAdjust="spacing" textLength="128.0713" x="27" y="294.3651">entity_type : TEXT</text><ellipse cx="18" cy="307.3153" fill="none" rx="3" ry="3" style="stroke:#038048;stroke-width:1;"/><text fill="#000000" font-family="sans-serif" font-size="14" lengthAdjust="spacing" textLength="97.1865" x="27" y="310.662">entity_id : INT</text><ellipse cx="18" cy="323.6122" fill="none" rx="3" ry="3" style="stroke:#038048;stroke-width:1;"/><text fill="#000000" font-family="sans-serif" font-size="14" lengthAdjust="spacing" textLength="92.251" x="27" y="326.9589">action : TEXT</text><ellipse cx="18" cy="339.9091" fill="none" rx="3" ry="3" style="stroke:#038048;stroke-width:1;"/><text fill="#000000" font-family="sans-serif" font-size="14" lengthAdjust="spacing" textLength="170.2764" x="27" y="343.2557">timestamp : TIMESTAMP</text><ellipse cx="18" cy="356.2059" fill="none" rx="3" ry="3" style="stroke:#038048;stroke-width:1;"/><text fill="#000000" font-family="sans-serif" font-size="14" lengthAdjust="spacing" textLength="87.083" x="27" y="359.5526">user_id : INT</text><ellipse cx="18" cy="372.5028" fill="none" rx="3" ry="3" style="stroke:#038048;stroke-width:1;"/><text fill="#000000" font-family="sans-serif" font-size="14" lengthAdjust="spacing" textLength="95.7988" x="27" y="375.8495">details : TEXT</text><ellipse cx="18" cy="388.7997" fill="none" rx="3" ry="3" style="stroke:#038048;stroke-width:1;"/><text fill="#000000" font-family="sans-serif" font-size="14" lengthAdjust="spacing" textLength="104.5146" x="27" y="392.1464">audit_id : UUID</text><line style="stroke:#181818;stroke-width:1;" x1="8" x2="448.6025" y1="399.4481" y2="399.4481"/><ellipse cx="18" cy="413.0966" fill="#84BE84" rx="3" ry="3" style="stroke:#038048;stroke-width:1;"/><text fill="#000000" font-family="sans-serif" font-size="14" lengthAdjust="spacing" textLength="416.6025" x="27" y="416.4432">PRIMARY KEY ((entity_type, entity_id), timestamp, audit_id)</text></g><!--class TransactionLogs--><g id="elem_TransactionLogs"><rect codeLine="27" fill="#F1F1F1" height="178.375" id="TransactionLogs" rx="2.5" ry="2.5" style="stroke:#181818;stroke-width:0.5;" width="238.4131" x="485.09" y="245.37"/><ellipse cx="542.6999" cy="261.37" fill="#FFAAAA" rx="11" ry="11" style="stroke:#181818;stroke-width:1;"/><path d="M543.5436,268.12 L541.0905,268.12 L541.0905,257.87 L537.9499,257.87 L537.9499,255.7294 L546.6842,255.7294 L546.6842,257.87 L543.5436,257.87 L543.5436,268.12 Z " fill="#000000"/><text fill="#000000" font-family="sans-serif" font-size="14" lengthAdjust="spacing" textLength="114.6934" x="563.1999" y="266.2167">TransactionLogs</text><line style="stroke:#181818;stroke-width:0.5;" x1="486.09" x2="722.5031" y1="277.37" y2="277.37"/><ellipse cx="496.09" cy="291.0184" fill="none" rx="3" ry="3" style="stroke:#038048;stroke-width:1;"/><text fill="#000000" font-family="sans-serif" font-size="14" lengthAdjust="spacing" textLength="147.8818" x="505.09" y="294.3651">transaction_id : UUID</text><ellipse cx="496.09" cy="307.3153" fill="none" rx="3" ry="3" style="stroke:#038048;stroke-width:1;"/><text fill="#000000" font-family="sans-serif" font-size="14" lengthAdjust="spacing" textLength="159.9678" x="505.09" y="310.662">sender_account : TEXT</text><ellipse cx="496.09" cy="323.6122" fill="none" rx="3" ry="3" style="stroke:#038048;stroke-width:1;"/><text fill="#000000" font-family="sans-serif" font-size="14" lengthAdjust="spacing" textLength="169.1553" x="505.09" y="326.9589">receiver_account : TEXT</text><ellipse cx="496.09" cy="339.9091" fill="none" rx="3" ry="3" style="stroke:#038048;stroke-width:1;"/><text fill="#000000" font-family="sans-serif" font-size="14" lengthAdjust="spacing" textLength="130.6211" x="505.09" y="343.2557">amount : DECIMAL</text><ellipse cx="496.09" cy="356.2059" fill="none" rx="3" ry="3" style="stroke:#038048;stroke-width:1;"/><text fill="#000000" font-family="sans-serif" font-size="14" lengthAdjust="spacing" textLength="212.4131" x="505.09" y="359.5526">transaction_date : TIMESTAMP</text><ellipse cx="496.09" cy="372.5028" fill="none" rx="3" ry="3" style="stroke:#038048;stroke-width:1;"/><text fill="#000000" font-family="sans-serif" font-size="14" lengthAdjust="spacing" textLength="92.1758" x="505.09" y="375.8495">status : TEXT</text><ellipse cx="496.09" cy="388.7997" fill="none" rx="3" ry="3" style="stroke:#038048;stroke-width:1;"/><text fill="#000000" font-family="sans-serif" font-size="14" lengthAdjust="spacing" textLength="153.5215" x="505.09" y="392.1464">error_message : TEXT</text><line style="stroke:#181818;stroke-width:1;" x1="486.09" x2="722.5031" y1="399.4481" y2="399.4481"/><ellipse cx="496.09" cy="413.0966" fill="#84BE84" rx="3" ry="3" style="stroke:#038048;stroke-width:1;"/><text fill="#000000" font-family="sans-serif" font-size="14" lengthAdjust="spacing" textLength="207.498" x="505.09" y="416.4432">PRIMARY KEY (transaction_id)</text></g><!--class UserLogs--><g id="elem_UserLogs"><rect codeLine="39" fill="#F1F1F1" height="145.7813" id="UserLogs" rx="2.5" ry="2.5" style="stroke:#181818;stroke-width:0.5;" width="319.3848" x="758.61" y="261.67"/><ellipse cx="881.8244" cy="277.67" fill="#FFAAAA" rx="11" ry="11" style="stroke:#181818;stroke-width:1;"/><path d="M882.6681,284.42 L880.215,284.42 L880.215,274.17 L877.0744,274.17 L877.0744,272.0294 L885.8087,272.0294 L885.8087,274.17 L882.6681,274.17 L882.6681,284.42 Z " fill="#000000"/><text fill="#000000" font-family="sans-serif" font-size="14" lengthAdjust="spacing" textLength="64.4561" x="902.3244" y="282.5167">UserLogs</text><line style="stroke:#181818;stroke-width:0.5;" x1="759.61" x2="1076.9948" y1="293.67" y2="293.67"/><ellipse cx="769.61" cy="307.3184" fill="none" rx="3" ry="3" style="stroke:#038048;stroke-width:1;"/><text fill="#000000" font-family="sans-serif" font-size="14" lengthAdjust="spacing" textLength="87.083" x="778.61" y="310.6651">user_id : INT</text><ellipse cx="769.61" cy="323.6153" fill="none" rx="3" ry="3" style="stroke:#038048;stroke-width:1;"/><text fill="#000000" font-family="sans-serif" font-size="14" lengthAdjust="spacing" textLength="92.251" x="778.61" y="326.962">action : TEXT</text><ellipse cx="769.61" cy="339.9122" fill="none" rx="3" ry="3" style="stroke:#038048;stroke-width:1;"/><text fill="#000000" font-family="sans-serif" font-size="14" lengthAdjust="spacing" textLength="170.2764" x="778.61" y="343.2589">timestamp : TIMESTAMP</text><ellipse cx="769.61" cy="356.2091" fill="none" rx="3" ry="3" style="stroke:#038048;stroke-width:1;"/><text fill="#000000" font-family="sans-serif" font-size="14" lengthAdjust="spacing" textLength="95.7988" x="778.61" y="359.5557">details : TEXT</text><ellipse cx="769.61" cy="372.5059" fill="none" rx="3" ry="3" style="stroke:#038048;stroke-width:1;"/><text fill="#000000" font-family="sans-serif" font-size="14" lengthAdjust="spacing" textLength="90.1387" x="778.61" y="375.8526">log_id : UUID</text><line style="stroke:#181818;stroke-width:1;" x1="759.61" x2="1076.9948" y1="383.1544" y2="383.1544"/><ellipse cx="769.61" cy="396.8028" fill="#84BE84" rx="3" ry="3" style="stroke:#038048;stroke-width:1;"/><text fill="#000000" font-family="sans-serif" font-size="14" lengthAdjust="spacing" textLength="293.3848" x="778.61" y="400.1495">PRIMARY KEY (user_id, timestamp, log_id)</text></g><!--class GeneralLogs--><g id="elem_GeneralLogs"><rect codeLine="49" fill="#F1F1F1" height="145.7813" id="GeneralLogs" rx="2.5" ry="2.5" style="stroke:#181818;stroke-width:0.5;" width="196.2764" x="860.16" y="23.3"/><ellipse cx="910.1888" cy="39.3" fill="#FFAAAA" rx="11" ry="11" style="stroke:#181818;stroke-width:1;"/><path d="M911.0326,46.05 L908.5794,46.05 L908.5794,35.8 L905.4388,35.8 L905.4388,33.6594 L914.1732,33.6594 L914.1732,35.8 L911.0326,35.8 L911.0326,46.05 Z " fill="#000000"/><text fill="#000000" font-family="sans-serif" font-size="14" lengthAdjust="spacing" textLength="87.7188" x="930.6888" y="44.1467">GeneralLogs</text><line style="stroke:#181818;stroke-width:0.5;" x1="861.16" x2="1055.4364" y1="55.3" y2="55.3"/><ellipse cx="871.16" cy="68.9484" fill="none" rx="3" ry="3" style="stroke:#038048;stroke-width:1;"/><text fill="#000000" font-family="sans-serif" font-size="14" lengthAdjust="spacing" textLength="90.1387" x="880.16" y="72.2951">log_id : UUID</text><ellipse cx="871.16" cy="85.2453" fill="none" rx="3" ry="3" style="stroke:#038048;stroke-width:1;"/><text fill="#000000" font-family="sans-serif" font-size="14" lengthAdjust="spacing" textLength="118.1797" x="880.16" y="88.592">log_level_id : INT</text><ellipse cx="871.16" cy="101.5422" fill="none" rx="3" ry="3" style="stroke:#038048;stroke-width:1;"/><text fill="#000000" font-family="sans-serif" font-size="14" lengthAdjust="spacing" textLength="112.0752" x="880.16" y="104.8889">message : TEXT</text><ellipse cx="871.16" cy="117.8391" fill="none" rx="3" ry="3" style="stroke:#038048;stroke-width:1;"/><text fill="#000000" font-family="sans-serif" font-size="14" lengthAdjust="spacing" textLength="95.7988" x="880.16" y="121.1857">details : TEXT</text><ellipse cx="871.16" cy="134.1359" fill="none" rx="3" ry="3" style="stroke:#038048;stroke-width:1;"/><text fill="#000000" font-family="sans-serif" font-size="14" lengthAdjust="spacing" textLength="170.2764" x="880.16" y="137.4826">timestamp : TIMESTAMP</text><line style="stroke:#181818;stroke-width:1;" x1="861.16" x2="1055.4364" y1="144.7844" y2="144.7844"/><ellipse cx="871.16" cy="158.4328" fill="#84BE84" rx="3" ry="3" style="stroke:#038048;stroke-width:1;"/><text fill="#000000" font-family="sans-serif" font-size="14" lengthAdjust="spacing" textLength="149.7549" x="880.16" y="161.7795">PRIMARY KEY (log_id)</text></g><!--link AuditLogs to FailedAuditLogs--><g id="link_AuditLogs_FailedAuditLogs"><path codeLine="62" d="M463.49,185.71 C432.63,205.11 405.0496,222.4467 374.1896,241.8467 " fill="none" id="AuditLogs-to-FailedAuditLogs" style="stroke:#181818;stroke-width:1;"/><polygon fill="#181818" points="369.11,245.04,378.8583,243.6365,373.343,242.3789,374.6006,236.8636,369.11,245.04" style="stroke:#181818;stroke-width:1;"/></g><!--link AuditLogs to TransactionLogs--><g id="link_AuditLogs_TransactionLogs"><path codeLine="63" d="M604.3,185.54 C604.3,204.95 604.3,219.5 604.3,238.92 " fill="none" id="AuditLogs-to-TransactionLogs" style="stroke:#181818;stroke-width:1;"/><polygon fill="#181818" points="604.3,244.92,608.3,235.92,604.3,239.92,600.3,235.92,604.3,244.92" style="stroke:#181818;stroke-width:1;"/></g><!--link AuditLogs to UserLogs--><g id="link_AuditLogs_UserLogs"><path codeLine="64" d="M721.67,185.54 C754.85,210.52 785.7773,233.7903 817.5373,257.7103 " fill="none" id="AuditLogs-to-UserLogs" style="stroke:#181818;stroke-width:1;"/><polygon fill="#181818" points="822.33,261.32,817.5473,252.7104,818.336,258.312,812.7344,259.1007,822.33,261.32" style="stroke:#181818;stroke-width:1;"/></g><!--SRC=[vPDVQy8m5CNVyodksCDQh5zWY51c7MKwn5NOdYHhxbmWffAaeenzzyMrQfD5s9xNntlovtVEQQuOld69OEYhm6WNGocerh23mG2Y8e7hyJYrNmp38I7DehHct4ogbOxXWu3zUe3ISBDVclq6uHQAxBbm1SxiE7yyJcbfU2NTbOQlKHkwtXp6-JHxAjBfhDLgZSe_Ww6XN6Zt47f0QrOk5ldeUzhlj-9ida_J-GiyP2yGHHtav8mP9sUGv7HSJ3wFviVsKcJ_Ee92KQaRVZS2SnOyW1vebCmwe6LPrTAuo0fBvDjBAbstir5sP-adWSiODHZ8p5emjHSFAbMffRMdwSefAfoHQwaJmiBsuReFDVJNbeEDYchrgpvR0AU-Pc-7-nubAYfSz9ytD3E1MnI-fq1s5y0lEmqRwC0ISWDp5FGGdtxd6qrEJyvk7eBt3C6JlL_Kbu_bVG40]--></g></svg>